<svg xmlns="http://www.w3.org/2000/svg" xmlns:xlink="http://www.w3.org/1999/xlink" xmlns:lucid="lucid" width="1202" height="682"><g transform="translate(-219 -199)" lucid:page-tab-id="Uz.HOz4upAw_"><path d="M1120 684.33a6 6 0 0 1 6-6h208a6 6 0 0 1 6 6v51.34a6 6 0 0 1-6 6h-208a6 6 0 0 1-6-6z" stroke="#000" stroke-opacity="0" stroke-width="2" fill="#fff" fill-opacity="0"/><use xlink:href="#a" transform="matrix(1,0,0,1,1125,683.3333333333334) translate(86.4814814814815 38.93055555555554)"/><path d="M760 362v10.85m0 10.84v21.68m0 10.85v21.7m0 10.84v21.7m0 10.84v10.85l.07.94.22.9.35.88.5.8.6.7.72.63.8.5.88.36.9.22.95.07h9.82m9.83 0h19.65m9.82 0h19.65m9.82 0h19.64m9.82 0h19.65m9.84 0h19.64m9.83 0h19.66m9.82 0h19.65m9.82 0h19.65m9.82 0h19.65m9.83 0h9.82" stroke="#3a414a" stroke-width="2" fill="none"/><path d="M760.98 362.03H759V361H761z" stroke="#3a414a" stroke-width=".05" fill="#3a414a"/><path d="M1076 498.15l-14.28 4.64v-9.28z" stroke="#3a414a" stroke-width="2" fill="#3a414a"/><path d="M760 362v10.53m0 10.53v21.05m0 10.54v21.06m0 10.53v21.05m0 10.53v21.07m0 10.52v21.05m0 10.53v21.06m0 10.53v21.05m0 10.53v10.53l.07.94.22.9.35.88.5.8.6.72.72.6.8.5.88.36.9.22.95.08h9.82m9.8 0h19.65m9.82 0h19.62m9.82 0h19.63m9.82 0h19.63m9.8 0h19.65m9.8 0h19.65m9.82 0h19.63m9.82 0h19.63m9.82 0h19.64m9.8 0h9.82" stroke="#3a414a" stroke-width="2" fill="none"/><path d="M760.98 362.03H759V361H761z" stroke="#3a414a" stroke-width=".05" fill="#3a414a"/><path d="M1075.8 620.68l-14.28 4.63v-9.26z" stroke="#3a414a" stroke-width="2" fill="#3a414a"/><path d="M760 362v10.1m0 10.1v20.18m0 10.1v20.2m0 10.08v20.2m0 10.1v20.18m0 10.1v20.2m0 10.08v20.2m0 10.1v20.18m0 10.1v20.18m0 10.1v20.2m0 10.1v20.18m0 10.1v20.18m0 10.1v20.2m0 10.08v20.2m0 10.1v20.18m0 10.1v10.1l.07.93.22.9.35.88.5.82.6.7.72.62.8.5.88.36.9.22.95.07h9.82m9.83 0h19.64m9.82 0h19.64m9.83 0h19.63m9.83 0h19.64m9.83 0h19.64m9.83 0h19.64m9.83 0h19.64m9.84 0h19.64m9.83 0h19.65m9.83 0h9.82" stroke="#3a414a" stroke-width="2" fill="none"/><path d="M760.98 362.03H759V361H761z" stroke="#3a414a" stroke-width=".05" fill="#3a414a"/><path d="M1075.96 822.3l-14.26 4.63v-9.27z" stroke="#3a414a" stroke-width="2" fill="#3a414a"/><path d="M1130 456a12.8 12.8 0 0 1 4.6-9.84l2.8-2.32A16.57 16.57 0 0 1 1148 440h186a6 6 0 0 1 6 6v76a16.57 16.57 0 0 1-3.84 10.6l-2.32 2.8a12.8 12.8 0 0 1-9.84 4.6h-188a6 6 0 0 1-6-6z" stroke="#282c33" stroke-width="2" fill="#fff"/><path d="M1136 450a2.17 2.17 0 0 1-1.4-3.84l2.8-2.32A16.57 16.57 0 0 1 1148 440h186a2.48 2.48 0 0 1 1.76 4.24l-1.52 1.52A14.48 14.48 0 0 1 1324 450z" stroke="#282c33" stroke-width="2" fill="#e6e6e6"/><path d="M1330 456a14.48 14.48 0 0 1 4.24-10.24l1.52-1.52A2.48 2.48 0 0 1 1340 446v76a16.57 16.57 0 0 1-3.84 10.6l-2.32 2.8a2.17 2.17 0 0 1-3.84-1.4z" stroke="#282c33" stroke-width="2" fill="#ccc"/><use xlink:href="#b" transform="matrix(1,0,0,1,1138,458) translate(0 17.77777777777778)"/><use xlink:href="#c" transform="matrix(1,0,0,1,1138,458) translate(64.1358024691358 17.77777777777778)"/><use xlink:href="#d" transform="matrix(1,0,0,1,1138,458) translate(0 44.44444444444444)"/><use xlink:href="#e" transform="matrix(1,0,0,1,1138,458) translate(76.41975308641975 44.44444444444444)"/><path d="M1130 500h-10m-40 0c0-11.05 8.95-20 20-20s20 8.95 20 20-8.95 20-20 20-20-8.95-20-20z" stroke="#282c33" stroke-width="2" fill="#fff"/><path d="M1130 500.8h-10v-1.6h10z" fill="none"/><path d="M1130 576a12.8 12.8 0 0 1 4.6-9.84l2.8-2.32A16.57 16.57 0 0 1 1148 560h186a6 6 0 0 1 6 6v76a16.57 16.57 0 0 1-3.84 10.6l-2.32 2.8a12.8 12.8 0 0 1-9.84 4.6h-188a6 6 0 0 1-6-6z" stroke="#282c33" stroke-width="2" fill="#fff"/><path d="M1136 570a2.17 2.17 0 0 1-1.4-3.84l2.8-2.32A16.57 16.57 0 0 1 1148 560h186a2.48 2.48 0 0 1 1.76 4.24l-1.52 1.52A14.48 14.48 0 0 1 1324 570z" stroke="#282c33" stroke-width="2" fill="#e6e6e6"/><path d="M1330 576a14.48 14.48 0 0 1 4.24-10.24l1.52-1.52A2.48 2.48 0 0 1 1340 566v76a16.57 16.57 0 0 1-3.84 10.6l-2.32 2.8a2.17 2.17 0 0 1-3.84-1.4z" stroke="#282c33" stroke-width="2" fill="#ccc"/><use xlink:href="#b" transform="matrix(1,0,0,1,1138,578) translate(0 17.77777777777778)"/><use xlink:href="#c" transform="matrix(1,0,0,1,1138,578) translate(64.1358024691358 17.77777777777778)"/><use xlink:href="#d" transform="matrix(1,0,0,1,1138,578) translate(0 44.44444444444444)"/><use xlink:href="#f" transform="matrix(1,0,0,1,1138,578) translate(76.41975308641975 44.44444444444444)"/><path d="M1130 620h-10m-40 0c0-11.05 8.95-20 20-20s20 8.95 20 20-8.95 20-20 20-20-8.95-20-20z" stroke="#282c33" stroke-width="2" fill="#fff"/><path d="M1130 620.8h-10v-1.6h10z" fill="none"/><path d="M1130 776a12.8 12.8 0 0 1 4.6-9.84l2.8-2.32A16.57 16.57 0 0 1 1148 760h186a6 6 0 0 1 6 6v76a16.57 16.57 0 0 1-3.84 10.6l-2.32 2.8a12.8 12.8 0 0 1-9.84 4.6h-188a6 6 0 0 1-6-6z" stroke="#282c33" stroke-width="2" fill="#fff"/><path d="M1136 770a2.17 2.17 0 0 1-1.4-3.84l2.8-2.32A16.57 16.57 0 0 1 1148 760h186a2.48 2.48 0 0 1 1.76 4.24l-1.52 1.52A14.48 14.48 0 0 1 1324 770z" stroke="#282c33" stroke-width="2" fill="#e6e6e6"/><path d="M1330 776a14.48 14.48 0 0 1 4.24-10.24l1.52-1.52A2.48 2.48 0 0 1 1340 766v76a16.57 16.57 0 0 1-3.84 10.6l-2.32 2.8a2.17 2.17 0 0 1-3.84-1.4z" stroke="#282c33" stroke-width="2" fill="#ccc"/><g><use xlink:href="#b" transform="matrix(1,0,0,1,1138,778) translate(0 17.77777777777778)"/><use xlink:href="#c" transform="matrix(1,0,0,1,1138,778) translate(64.1358024691358 17.77777777777778)"/><use xlink:href="#d" transform="matrix(1,0,0,1,1138,778) translate(0 44.44444444444444)"/><use xlink:href="#g" transform="matrix(1,0,0,1,1138,778) translate(76.41975308641975 44.44444444444444)"/></g><g><path d="M1130 820h-10m-40 0c0-11.05 8.95-20 20-20s20 8.95 20 20-8.95 20-20 20-20-8.95-20-20z" stroke="#282c33" stroke-width="2" fill="#fff"/><path d="M1130 820.8h-10v-1.6h10z" fill="none"/></g><g class="lucid-layer" lucid:layer-id="kB.HrtaON4Av" display="block"><path d="M620 226a6 6 0 0 1 6-6h268a6 6 0 0 1 6 6v128a6 6 0 0 1-6 6H626a6 6 0 0 1-6-6z" stroke="#282c33" stroke-width="2" fill="#fff"/><path d="M890 230h-15v20h15z" stroke="#282c33" fill="#fff"/><path d="M880 233.33h-10v3.34h10zm0 10h-10v3.34h10z" stroke="#282c33" fill="#fff"/><use xlink:href="#h" transform="matrix(1,0,0,1,620,220) translate(62.937098765432104 74.65277777777777)"/><use xlink:href="#i" transform="matrix(1,0,0,1,620,220) translate(129.4803086419753 74.65277777777777)"/><path d="M1120 226a6 6 0 0 1 6-6h268a6 6 0 0 1 6 6v128a6 6 0 0 1-6 6h-268a6 6 0 0 1-6-6z" stroke="#282c33" stroke-width="2" fill="#fff"/><path d="M1390 230h-15v20h15z" stroke="#282c33" fill="#fff"/><path d="M1380 233.33h-10v3.34h10zm0 10h-10v3.34h10z" stroke="#282c33" fill="#fff"/><use xlink:href="#h" transform="matrix(1,0,0,1,1120,220) translate(62.937098765432104 61.52777777777778)"/><use xlink:href="#j" transform="matrix(1,0,0,1,1120,220) translate(129.4803086419753 61.52777777777778)"/><use xlink:href="#k" transform="matrix(1,0,0,1,1120,220) translate(64.81981481481482 88.19444444444446)"/><use xlink:href="#l" transform="matrix(1,0,0,1,1120,220) translate(133.83216049382716 88.19444444444446)"/><path d="M985 290h11M1030 290h5" stroke="#282c33" stroke-width="2" fill="none"/><path d="M1010 276c7.73 0 14 6.27 14 14s-6.27 14-14 14-14-6.27-14-14 6.27-14 14-14z" stroke="#282c33" stroke-width="2" fill="#fff"/><path d="M1010 310c11.05 0 20-8.95 20-20s-8.95-20-20-20" stroke="#282c33" stroke-width="2" fill="none"/><path d="M985 290a.8.8 0 0 1 .8-.8h9.4a.8.8 0 0 1 .8.8.8.8 0 0 1-.8.8h-9.4a.8.8 0 0 1-.8-.8z" fill="none"/><path d="M902 290h82" stroke="#3a414a" stroke-width="2" fill="none"/><path d="M902.03 290.98H901v-1.96h1.03zM985 290.98h-1.03v-1.96H985z" stroke="#3a414a" stroke-width=".05" fill="#3a414a"/><path d="M1118 290h-82" stroke="#3a414a" stroke-width="2" fill="none"/><path d="M1119 290.98h-1.03v-1.96h1.03zM1036.03 290.98H1035v-1.96h1.03z" stroke="#3a414a" stroke-width=".05" fill="#3a414a"/><path d="M890 316a6 6 0 0 1 6-6h228a6 6 0 0 1 6 6v51.33a6 6 0 0 1-6 6H896a6 6 0 0 1-6-6z" stroke="#000" stroke-opacity="0" stroke-width="2" fill="#fff" fill-opacity="0"/><use xlink:href="#m" transform="matrix(1,0,0,1,895.0000000000001,314.9999999999612) translate(25.691358024691397 20.972222222222218)"/><use xlink:href="#n" transform="matrix(1,0,0,1,895.0000000000001,314.9999999999612) translate(134.23456790123458 20.972222222222218)"/><use xlink:href="#o" transform="matrix(1,0,0,1,895.0000000000001,314.9999999999612) translate(57.74074074074076 42.30555555555554)"/><path d="M620 290h-10m-40 0c0-11.05 8.95-20 20-20s20 8.95 20 20-8.95 20-20 20-20-8.95-20-20z" stroke="#282c33" stroke-width="2" fill="#fff"/><path d="M620 290.8h-10v-1.6h10z" fill="none"/><path d="M500 326a6 6 0 0 1 6-6h98a6 6 0 0 1 6 6v51.33a6 6 0 0 1-6 6h-98a6 6 0 0 1-6-6z" stroke="#000" stroke-opacity="0" stroke-width="2" fill="#fff" fill-opacity="0"/><use xlink:href="#p" transform="matrix(1,0,0,1,505,324.9999999999612) translate(14.962962962962976 20.972222222222218)"/><use xlink:href="#q" transform="matrix(1,0,0,1,505,324.9999999999612) translate(14.962962962962983 42.30555555555554)"/><path d="M240 236a6 6 0 0 1 6-6h148a6 6 0 0 1 6 6v108a6 6 0 0 1-6 6H246a6 6 0 0 1-6-6z" stroke="#282c33" stroke-width="2" fill="#fff"/><path d="M390 240h-15v20h15z" stroke="#282c33" fill="#fff"/><path d="M380 243.33h-10v3.34h10zm0 10h-10v3.34h10z" stroke="#282c33" fill="#fff"/><g><use xlink:href="#r" transform="matrix(1,0,0,1,240,230) translate(21.177839506172838 62.77777777777778)"/><use xlink:href="#s" transform="matrix(1,0,0,1,240,230) translate(72.16549382716049 62.77777777777778)"/><use xlink:href="#t" transform="matrix(1,0,0,1,240,230) translate(99.32598765432098 62.77777777777778)"/></g><path d="M402 290h9.22m9.22 0h18.45m9.2 0h18.45m9.23 0h20.14m10.9 0h21.84m10.92 0h10.92" stroke="#3a414a" stroke-width="2" fill="none"/><path d="M402.03 290.98H401v-1.96h1.03z" stroke="#3a414a" stroke-width=".05" fill="#3a414a"/><path d="M565.76 290l-14.26 4.63v-9.26z" stroke="#3a414a" stroke-width="2" fill="#3a414a"/></g><defs><path fill="#3a414a" d="M33 0v-38h34V0H33" id="u"/><g id="a"><use transform="matrix(0.12345679012345674,0,0,0.12345679012345674,0,0)" xlink:href="#u"/><use transform="matrix(0.12345679012345674,0,0,0.12345679012345674,12.345679012345673,0)" xlink:href="#u"/><use transform="matrix(0.12345679012345674,0,0,0.12345679012345674,24.691358024691347,0)" xlink:href="#u"/></g><path fill="#3a414a" d="M205 0l-28-72H64L36 0H1l101-248h38L239 0h-34zm-38-99l-47-123c-12 45-31 82-46 123h93" id="v"/><path fill="#3a414a" d="M9 0v-24l116-142H16v-24h144v24L44-24h123V0H9" id="w"/><path fill="#3a414a" d="M84 4C-5 8 30-112 23-190h32v120c0 31 7 50 39 49 72-2 45-101 50-169h31l1 190h-30c-1-10 1-25-2-33-11 22-28 36-60 37" id="x"/><path fill="#3a414a" d="M114-163C36-179 61-72 57 0H25l-1-190h30c1 12-1 29 2 39 6-27 23-49 58-41v29" id="y"/><path fill="#3a414a" d="M100-194c63 0 86 42 84 106H49c0 40 14 67 53 68 26 1 43-12 49-29l28 8c-11 28-37 45-77 45C44 4 14-33 15-96c1-61 26-98 85-98zm52 81c6-60-76-77-97-28-3 7-6 17-6 28h103" id="z"/><g id="b"><use transform="matrix(0.06172839506172839,0,0,0.06172839506172839,0,0)" xlink:href="#v"/><use transform="matrix(0.06172839506172839,0,0,0.06172839506172839,14.814814814814813,0)" xlink:href="#w"/><use transform="matrix(0.06172839506172839,0,0,0.06172839506172839,25.925925925925924,0)" xlink:href="#x"/><use transform="matrix(0.06172839506172839,0,0,0.06172839506172839,38.2716049382716,0)" xlink:href="#y"/><use transform="matrix(0.06172839506172839,0,0,0.06172839506172839,45.61728395061728,0)" xlink:href="#z"/></g><path fill="#3a414a" d="M140-251c81 0 123 46 123 126C263-46 219 4 140 4 59 4 17-45 17-125s42-126 123-126zm0 227c63 0 89-41 89-101s-29-99-89-99c-61 0-89 39-89 99S79-25 140-24" id="A"/><path fill="#3a414a" d="M115-194c55 1 70 41 70 98S169 2 115 4C84 4 66-9 55-30l1 105H24l-1-265h31l2 30c10-21 28-34 59-34zm-8 174c40 0 45-34 45-75s-6-73-45-74c-42 0-51 32-51 76 0 43 10 73 51 73" id="B"/><path fill="#3a414a" d="M117-194c89-4 53 116 60 194h-32v-121c0-31-8-49-39-48C34-167 62-67 57 0H25l-1-190h30c1 10-1 24 2 32 11-22 29-35 61-36" id="C"/><path fill="#3a414a" d="M33 0v-248h34V0H33" id="D"/><g id="c"><use transform="matrix(0.06172839506172839,0,0,0.06172839506172839,0,0)" xlink:href="#A"/><use transform="matrix(0.06172839506172839,0,0,0.06172839506172839,17.28395061728395,0)" xlink:href="#B"/><use transform="matrix(0.06172839506172839,0,0,0.06172839506172839,29.629629629629626,0)" xlink:href="#z"/><use transform="matrix(0.06172839506172839,0,0,0.06172839506172839,41.9753086419753,0)" xlink:href="#C"/><use transform="matrix(0.06172839506172839,0,0,0.06172839506172839,54.32098765432098,0)" xlink:href="#v"/><use transform="matrix(0.06172839506172839,0,0,0.06172839506172839,69.1358024691358,0)" xlink:href="#D"/></g><path fill="#3a414a" d="M233-177c-1 41-23 64-60 70L243 0h-38l-65-103H63V0H30v-248c88 3 205-21 203 71zM63-129c60-2 137 13 137-47 0-61-80-42-137-45v92" id="E"/><path fill="#3a414a" d="M177-190C167-65 218 103 67 71c-23-6-38-20-44-43l32-5c15 47 100 32 89-28v-30C133-14 115 1 83 1 29 1 15-40 15-95c0-56 16-97 71-98 29-1 48 16 59 35 1-10 0-23 2-32h30zM94-22c36 0 50-32 50-73 0-42-14-75-50-75-39 0-46 34-46 75s6 73 46 73" id="F"/><path fill="#3a414a" d="M24-231v-30h32v30H24zM24 0v-190h32V0H24" id="G"/><path fill="#3a414a" d="M100-194c62-1 85 37 85 99 1 63-27 99-86 99S16-35 15-95c0-66 28-99 85-99zM99-20c44 1 53-31 53-75 0-43-8-75-51-75s-53 32-53 75 10 74 51 75" id="H"/><g id="d"><use transform="matrix(0.06172839506172839,0,0,0.06172839506172839,0,0)" xlink:href="#E"/><use transform="matrix(0.06172839506172839,0,0,0.06172839506172839,15.987654320987653,0)" xlink:href="#z"/><use transform="matrix(0.06172839506172839,0,0,0.06172839506172839,28.333333333333332,0)" xlink:href="#F"/><use transform="matrix(0.06172839506172839,0,0,0.06172839506172839,40.67901234567901,0)" xlink:href="#G"/><use transform="matrix(0.06172839506172839,0,0,0.06172839506172839,45.55555555555556,0)" xlink:href="#H"/><use transform="matrix(0.06172839506172839,0,0,0.06172839506172839,57.901234567901234,0)" xlink:href="#C"/></g><path fill="#3a414a" d="M27 0v-27h64v-190l-56 39v-29l58-41h29v221h61V0H27" id="I"/><use transform="matrix(0.06172839506172839,0,0,0.06172839506172839,0,0)" xlink:href="#I" id="e"/><path fill="#3a414a" d="M101-251c82-7 93 87 43 132L82-64C71-53 59-42 53-27h129V0H18c2-99 128-94 128-182 0-28-16-43-45-43s-46 15-49 41l-32-3c6-41 34-60 81-64" id="J"/><use transform="matrix(0.06172839506172839,0,0,0.06172839506172839,0,0)" xlink:href="#J" id="f"/><path fill="#3a414a" d="M190 0L58-211 59 0H30v-248h39L202-35l-2-213h31V0h-41" id="K"/><use transform="matrix(0.06172839506172839,0,0,0.06172839506172839,0,0)" xlink:href="#K" id="g"/><path fill="#3a414a" d="M240 0l2-218c-23 76-54 145-80 218h-23L58-218 59 0H30v-248h44l77 211c21-75 51-140 76-211h43V0h-30" id="L"/><path fill="#3a414a" d="M85-194c31 0 48 13 60 33l-1-100h32l1 261h-30c-2-10 0-23-3-31C134-8 116 4 85 4 32 4 16-35 15-94c0-66 23-100 70-100zm9 24c-40 0-46 34-46 75 0 40 6 74 45 74 42 0 51-32 51-76 0-42-9-74-50-73" id="M"/><path fill="#3a414a" d="M24 0v-261h32V0H24" id="N"/><g id="h"><use transform="matrix(0.06172839506172839,0,0,0.06172839506172839,0,0)" xlink:href="#L"/><use transform="matrix(0.06172839506172839,0,0,0.06172839506172839,18.456790123456788,0)" xlink:href="#H"/><use transform="matrix(0.06172839506172839,0,0,0.06172839506172839,30.80246913580247,0)" xlink:href="#M"/><use transform="matrix(0.06172839506172839,0,0,0.06172839506172839,43.148148148148145,0)" xlink:href="#z"/><use transform="matrix(0.06172839506172839,0,0,0.06172839506172839,55.49382716049382,0)" xlink:href="#N"/></g><path fill="#3a414a" d="M143 4C61 4 22-44 18-125c-5-107 100-154 193-111 17 8 29 25 37 43l-32 9c-13-25-37-40-76-40-61 0-88 39-88 99 0 61 29 100 91 101 35 0 62-11 79-27v-45h-74v-28h105v86C228-13 192 4 143 4" id="O"/><path fill="#3a414a" d="M141-36C126-15 110 5 73 4 37 3 15-17 15-53c-1-64 63-63 125-63 3-35-9-54-41-54-24 1-41 7-42 31l-33-3c5-37 33-52 76-52 45 0 72 20 72 64v82c-1 20 7 32 28 27v20c-31 9-61-2-59-35zM48-53c0 20 12 33 32 33 41-3 63-29 60-74-43 2-92-5-92 41" id="P"/><path fill="#3a414a" d="M59-47c-2 24 18 29 38 22v24C64 9 27 4 27-40v-127H5v-23h24l9-43h21v43h35v23H59v120" id="Q"/><path fill="#3a414a" d="M206 0h-36l-40-164L89 0H53L-1-190h32L70-26l43-164h34l41 164 42-164h31" id="R"/><path fill="#3a414a" d="M179-190L93 31C79 59 56 82 12 73V49c39 6 53-20 64-50L1-190h34L92-34l54-156h33" id="S"/><g id="i"><use transform="matrix(0.06172839506172839,0,0,0.06172839506172839,0,0)" xlink:href="#O"/><use transform="matrix(0.06172839506172839,0,0,0.06172839506172839,17.28395061728395,0)" xlink:href="#P"/><use transform="matrix(0.06172839506172839,0,0,0.06172839506172839,29.629629629629626,0)" xlink:href="#Q"/><use transform="matrix(0.06172839506172839,0,0,0.06172839506172839,35.80246913580247,0)" xlink:href="#z"/><use transform="matrix(0.06172839506172839,0,0,0.06172839506172839,48.148148148148145,0)" xlink:href="#R"/><use transform="matrix(0.06172839506172839,0,0,0.06172839506172839,64.1358024691358,0)" xlink:href="#P"/><use transform="matrix(0.06172839506172839,0,0,0.06172839506172839,76.48148148148148,0)" xlink:href="#S"/></g><g id="j"><use transform="matrix(0.06172839506172839,0,0,0.06172839506172839,0,0)" xlink:href="#O"/><use transform="matrix(0.06172839506172839,0,0,0.06172839506172839,17.28395061728395,0)" xlink:href="#P"/><use transform="matrix(0.06172839506172839,0,0,0.06172839506172839,29.629629629629626,0)" xlink:href="#Q"/><use transform="matrix(0.06172839506172839,0,0,0.06172839506172839,35.80246913580247,0)" xlink:href="#z"/><use transform="matrix(0.06172839506172839,0,0,0.06172839506172839,48.148148148148145,0)" xlink:href="#R"/><use transform="matrix(0.06172839506172839,0,0,0.06172839506172839,64.1358024691358,0)" xlink:href="#P"/><use transform="matrix(0.06172839506172839,0,0,0.06172839506172839,76.48148148148148,0)" xlink:href="#S"/></g><path fill="#3a414a" d="M210-169c-67 3-38 105-44 169h-31v-121c0-29-5-50-35-48C34-165 62-65 56 0H25l-1-190h30c1 10-1 24 2 32 10-44 99-50 107 0 11-21 27-35 58-36 85-2 47 119 55 194h-31v-121c0-29-5-49-35-48" id="T"/><g id="k"><use transform="matrix(0.06172839506172839,0,0,0.06172839506172839,0,0)" xlink:href="#v"/><use transform="matrix(0.06172839506172839,0,0,0.06172839506172839,14.814814814814813,0)" xlink:href="#M"/><use transform="matrix(0.06172839506172839,0,0,0.06172839506172839,27.160493827160494,0)" xlink:href="#T"/><use transform="matrix(0.06172839506172839,0,0,0.06172839506172839,45.61728395061728,0)" xlink:href="#G"/><use transform="matrix(0.06172839506172839,0,0,0.06172839506172839,50.49382716049382,0)" xlink:href="#C"/></g><path fill="#3a414a" d="M212-179c-10-28-35-45-73-45-59 0-87 40-87 99 0 60 29 101 89 101 43 0 62-24 78-52l27 14C228-24 195 4 139 4 59 4 22-46 18-125c-6-104 99-153 187-111 19 9 31 26 39 46" id="U"/><path fill="#3a414a" d="M135-143c-3-34-86-38-87 0 15 53 115 12 119 90S17 21 10-45l28-5c4 36 97 45 98 0-10-56-113-15-118-90-4-57 82-63 122-42 12 7 21 19 24 35" id="V"/><g id="l"><use transform="matrix(0.06172839506172839,0,0,0.06172839506172839,0,0)" xlink:href="#U"/><use transform="matrix(0.06172839506172839,0,0,0.06172839506172839,15.987654320987653,0)" xlink:href="#H"/><use transform="matrix(0.06172839506172839,0,0,0.06172839506172839,28.333333333333332,0)" xlink:href="#C"/><use transform="matrix(0.06172839506172839,0,0,0.06172839506172839,40.67901234567901,0)" xlink:href="#V"/><use transform="matrix(0.06172839506172839,0,0,0.06172839506172839,51.79012345679013,0)" xlink:href="#H"/><use transform="matrix(0.06172839506172839,0,0,0.06172839506172839,64.13580246913581,0)" xlink:href="#N"/><use transform="matrix(0.06172839506172839,0,0,0.06172839506172839,69.01234567901236,0)" xlink:href="#z"/></g><g id="m"><use transform="matrix(0.0493827160493827,0,0,0.0493827160493827,0,0)" xlink:href="#L"/><use transform="matrix(0.0493827160493827,0,0,0.0493827160493827,14.765432098765427,0)" xlink:href="#P"/><use transform="matrix(0.0493827160493827,0,0,0.0493827160493827,24.641975308641968,0)" xlink:href="#C"/><use transform="matrix(0.0493827160493827,0,0,0.0493827160493827,34.518518518518505,0)" xlink:href="#P"/><use transform="matrix(0.0493827160493827,0,0,0.0493827160493827,44.39506172839504,0)" xlink:href="#F"/><use transform="matrix(0.0493827160493827,0,0,0.0493827160493827,54.27160493827157,0)" xlink:href="#z"/><use transform="matrix(0.0493827160493827,0,0,0.0493827160493827,64.14814814814812,0)" xlink:href="#T"/><use transform="matrix(0.0493827160493827,0,0,0.0493827160493827,78.91358024691355,0)" xlink:href="#z"/><use transform="matrix(0.0493827160493827,0,0,0.0493827160493827,88.7901234567901,0)" xlink:href="#C"/><use transform="matrix(0.0493827160493827,0,0,0.0493827160493827,98.66666666666664,0)" xlink:href="#Q"/></g><path fill="#3a414a" d="M30 0v-248h187v28H63v79h144v27H63v87h162V0H30" id="W"/><g id="n"><use transform="matrix(0.0493827160493827,0,0,0.0493827160493827,0,0)" xlink:href="#W"/><use transform="matrix(0.0493827160493827,0,0,0.0493827160493827,11.851851851851848,0)" xlink:href="#C"/><use transform="matrix(0.0493827160493827,0,0,0.0493827160493827,21.728395061728385,0)" xlink:href="#M"/><use transform="matrix(0.0493827160493827,0,0,0.0493827160493827,31.604938271604922,0)" xlink:href="#B"/><use transform="matrix(0.0493827160493827,0,0,0.0493827160493827,41.48148148148146,0)" xlink:href="#H"/><use transform="matrix(0.0493827160493827,0,0,0.0493827160493827,51.358024691358,0)" xlink:href="#G"/><use transform="matrix(0.0493827160493827,0,0,0.0493827160493827,55.25925925925923,0)" xlink:href="#C"/><use transform="matrix(0.0493827160493827,0,0,0.0493827160493827,65.13580246913577,0)" xlink:href="#Q"/></g><path fill="#3a414a" d="M18-100v-36l175-74v27L42-118l151 64v27" id="X"/><path fill="#3a414a" d="M106-169C34-169 62-67 57 0H25v-261h32l-1 103c12-21 28-36 61-36 89 0 53 116 60 194h-32v-121c2-32-8-49-39-48" id="Y"/><path fill="#3a414a" d="M140-251c81 0 123 46 123 126C263-53 228-8 163 1c7 30 30 48 69 40v23c-55 16-95-15-103-61C56-3 17-48 17-125c0-80 42-126 123-126zm0 227c63 0 89-41 89-101s-29-99-89-99c-61 0-89 39-89 99S79-25 140-24" id="Z"/><path fill="#3a414a" d="M30 0v-248h33v221h125V0H30" id="aa"/><path fill="#3a414a" d="M18-27v-27l151-64-151-65v-27l175 74v36" id="ab"/><g id="o"><use transform="matrix(0.0493827160493827,0,0,0.0493827160493827,0,0)" xlink:href="#X"/><use transform="matrix(0.0493827160493827,0,0,0.0493827160493827,10.370370370370367,0)" xlink:href="#X"/><use transform="matrix(0.0493827160493827,0,0,0.0493827160493827,20.740740740740733,0)" xlink:href="#O"/><use transform="matrix(0.0493827160493827,0,0,0.0493827160493827,34.56790123456789,0)" xlink:href="#y"/><use transform="matrix(0.0493827160493827,0,0,0.0493827160493827,40.44444444444443,0)" xlink:href="#P"/><use transform="matrix(0.0493827160493827,0,0,0.0493827160493827,50.320987654320966,0)" xlink:href="#B"/><use transform="matrix(0.0493827160493827,0,0,0.0493827160493827,60.197530864197496,0)" xlink:href="#Y"/><use transform="matrix(0.0493827160493827,0,0,0.0493827160493827,70.07407407407405,0)" xlink:href="#Z"/><use transform="matrix(0.0493827160493827,0,0,0.0493827160493827,83.9012345679012,0)" xlink:href="#aa"/><use transform="matrix(0.0493827160493827,0,0,0.0493827160493827,93.77777777777774,0)" xlink:href="#ab"/><use transform="matrix(0.0493827160493827,0,0,0.0493827160493827,104.14814814814811,0)" xlink:href="#ab"/></g><g id="p"><use transform="matrix(0.0493827160493827,0,0,0.0493827160493827,0,0)" xlink:href="#O"/><use transform="matrix(0.0493827160493827,0,0,0.0493827160493827,13.827160493827156,0)" xlink:href="#P"/><use transform="matrix(0.0493827160493827,0,0,0.0493827160493827,23.703703703703695,0)" xlink:href="#Q"/><use transform="matrix(0.0493827160493827,0,0,0.0493827160493827,28.641975308641964,0)" xlink:href="#z"/><use transform="matrix(0.0493827160493827,0,0,0.0493827160493827,38.518518518518505,0)" xlink:href="#R"/><use transform="matrix(0.0493827160493827,0,0,0.0493827160493827,51.308641975308625,0)" xlink:href="#P"/><use transform="matrix(0.0493827160493827,0,0,0.0493827160493827,61.18518518518516,0)" xlink:href="#S"/></g><g id="q"><use transform="matrix(0.0493827160493827,0,0,0.0493827160493827,0,0)" xlink:href="#W"/><use transform="matrix(0.0493827160493827,0,0,0.0493827160493827,11.851851851851848,0)" xlink:href="#C"/><use transform="matrix(0.0493827160493827,0,0,0.0493827160493827,21.728395061728385,0)" xlink:href="#M"/><use transform="matrix(0.0493827160493827,0,0,0.0493827160493827,31.604938271604922,0)" xlink:href="#B"/><use transform="matrix(0.0493827160493827,0,0,0.0493827160493827,41.48148148148146,0)" xlink:href="#H"/><use transform="matrix(0.0493827160493827,0,0,0.0493827160493827,51.358024691358,0)" xlink:href="#G"/><use transform="matrix(0.0493827160493827,0,0,0.0493827160493827,55.25925925925923,0)" xlink:href="#C"/><use transform="matrix(0.0493827160493827,0,0,0.0493827160493827,65.13580246913577,0)" xlink:href="#Q"/></g><path fill="#3a414a" d="M137-103V0h-34v-103L8-248h37l75 118 75-118h37" id="ac"/><g id="r"><use transform="matrix(0.06172839506172839,0,0,0.06172839506172839,0,0)" xlink:href="#ac"/><use transform="matrix(0.06172839506172839,0,0,0.06172839506172839,12.777777777777777,0)" xlink:href="#H"/><use transform="matrix(0.06172839506172839,0,0,0.06172839506172839,25.123456790123456,0)" xlink:href="#x"/><use transform="matrix(0.06172839506172839,0,0,0.06172839506172839,37.46913580246913,0)" xlink:href="#y"/></g><g id="s"><use transform="matrix(0.06172839506172839,0,0,0.06172839506172839,0,0)" xlink:href="#v"/><use transform="matrix(0.06172839506172839,0,0,0.06172839506172839,14.814814814814813,0)" xlink:href="#D"/></g><g id="t"><use transform="matrix(0.06172839506172839,0,0,0.06172839506172839,0,0)" xlink:href="#v"/><use transform="matrix(0.06172839506172839,0,0,0.06172839506172839,14.814814814814813,0)" xlink:href="#B"/><use transform="matrix(0.06172839506172839,0,0,0.06172839506172839,27.160493827160494,0)" xlink:href="#B"/></g></defs></g></svg>