<svg xmlns="http://www.w3.org/2000/svg" xmlns:xlink="http://www.w3.org/1999/xlink" xmlns:lucid="lucid" width="1202" height="722"><g transform="translate(1301 201)" lucid:page-tab-id="0_0"><path d="M-900-174a6 6 0 0 1 6-6h268a6 6 0 0 1 6 6v128a6 6 0 0 1-6 6h-268a6 6 0 0 1-6-6z" stroke="#282c33" stroke-width="2" fill="#fff"/><path d="M-630-170h-15v20h15z" stroke="#282c33" fill="#fff"/><path d="M-640-166.67h-10v3.34h10zm0 10h-10v3.34h10z" stroke="#282c33" fill="#fff"/><use xlink:href="#a" transform="matrix(1,0,0,1,-900,-180) translate(62.937098765432104 74.65277777777777)"/><use xlink:href="#b" transform="matrix(1,0,0,1,-900,-180) translate(129.4803086419753 74.65277777777777)"/><path d="M-400-174a6 6 0 0 1 6-6h268a6 6 0 0 1 6 6v128a6 6 0 0 1-6 6h-268a6 6 0 0 1-6-6z" stroke="#282c33" stroke-width="2" fill="#fff"/><path d="M-130-170h-15v20h15z" stroke="#282c33" fill="#fff"/><path d="M-140-166.67h-10v3.34h10zm0 10h-10v3.34h10z" stroke="#282c33" fill="#fff"/><use xlink:href="#a" transform="matrix(1,0,0,1,-400,-180) translate(62.937098765432104 61.52777777777778)"/><use xlink:href="#c" transform="matrix(1,0,0,1,-400,-180) translate(129.4803086419753 61.52777777777778)"/><use xlink:href="#d" transform="matrix(1,0,0,1,-400,-180) translate(64.81981481481482 88.19444444444446)"/><use xlink:href="#e" transform="matrix(1,0,0,1,-400,-180) translate(133.83216049382716 88.19444444444446)"/><path d="M-535-110h11M-490-110h5" stroke="#282c33" stroke-width="2" fill="none"/><path d="M-510-124c7.73 0 14 6.27 14 14s-6.27 14-14 14-14-6.27-14-14 6.27-14 14-14z" stroke="#282c33" stroke-width="2" fill="#fff"/><path d="M-510-90c11.05 0 20-8.95 20-20s-8.95-20-20-20" stroke="#282c33" stroke-width="2" fill="none"/><path d="M-535-110a.8.8 0 0 1 .8-.8h9.4a.8.8 0 0 1 .8.8.8.8 0 0 1-.8.8h-9.4a.8.8 0 0 1-.8-.8z" fill="none"/><path d="M-618-110h82" stroke="#3a414a" stroke-width="2" fill="none"/><path d="M-617.97-109.03H-619v-1.94h1.03zM-535-109.03h-1.03v-1.94h1.03z" stroke="#3a414a" stroke-width=".05" fill="#3a414a"/><path d="M-402-110h-82" stroke="#3a414a" stroke-width="2" fill="none"/><path d="M-401-109.03h-1.03v-1.94h1.03zM-483.97-109.03H-485v-1.94h1.03z" stroke="#3a414a" stroke-width=".05" fill="#3a414a"/><path d="M-630-84a6 6 0 0 1 6-6h228a6 6 0 0 1 6 6v51.33a6 6 0 0 1-6 6h-228a6 6 0 0 1-6-6z" stroke="#000" stroke-opacity="0" stroke-width="2" fill="#fff" fill-opacity="0"/><use xlink:href="#f" transform="matrix(1,0,0,1,-625,-85) translate(25.691358024691397 20.972222222222218)"/><use xlink:href="#g" transform="matrix(1,0,0,1,-625,-85) translate(134.23456790123458 20.972222222222218)"/><use xlink:href="#h" transform="matrix(1,0,0,1,-625,-85) translate(57.74074074074076 42.30555555555554)"/><path d="M-900-110h-10m-40 0c0-11.05 8.95-20 20-20s20 8.95 20 20-8.95 20-20 20-20-8.95-20-20z" stroke="#282c33" stroke-width="2" fill="#fff"/><path d="M-900-109.2h-10v-1.6h10z" fill="none"/><path d="M-1020-74a6 6 0 0 1 6-6h98a6 6 0 0 1 6 6v51.33a6 6 0 0 1-6 6h-98a6 6 0 0 1-6-6z" stroke="#000" stroke-opacity="0" stroke-width="2" fill="#fff" fill-opacity="0"/><use xlink:href="#i" transform="matrix(1,0,0,1,-1015,-75) translate(14.962962962962976 20.972222222222218)"/><use xlink:href="#j" transform="matrix(1,0,0,1,-1015,-75) translate(14.962962962962983 42.30555555555554)"/><path d="M-760-38v10.5m0 10.48v21m0 10.48v20.98m0 10.5V66.9m0 10.5v20.97m0 10.48v21m0 10.48v20.98m0 10.5v20.98m0 10.5v10.48l.07.94.22.9.35.88.5.8.6.72.72.6.8.5.88.37.9.23.95.07h10.54m10.54 0h21.07m10.54 0h21.06m10.54 0h21.08m10.53 0h21.1m10.53 0h21.07m10.54 0h21.07m10.55 0h21.08m10.53 0h21.08m10.54 0h10.53" stroke="#3a414a" stroke-width="2" fill="none"/><path d="M-759.02-37.97H-761V-39h1.96z" stroke="#3a414a" stroke-width=".05" fill="#3a414a"/><path d="M-454.22 219.8l-14.26 4.63v-9.27z" stroke="#3a414a" stroke-width="2" fill="#3a414a"/><path d="M-400 176a12.8 12.8 0 0 1 4.6-9.84l2.8-2.32A16.57 16.57 0 0 1-382 160h201a6 6 0 0 1 6 6v76a16.57 16.57 0 0 1-3.84 10.6l-2.32 2.8A12.8 12.8 0 0 1-191 260h-203a6 6 0 0 1-6-6z" stroke="#282c33" stroke-width="2" fill="#fff"/><path d="M-394 170a2.17 2.17 0 0 1-1.4-3.84l2.8-2.32A16.57 16.57 0 0 1-382 160h201a2.48 2.48 0 0 1 1.76 4.24l-1.52 1.52A14.48 14.48 0 0 1-191 170z" stroke="#282c33" stroke-width="2" fill="#e6e6e6"/><path d="M-185 176a14.48 14.48 0 0 1 4.24-10.24l1.52-1.52A2.48 2.48 0 0 1-175 166v76a16.57 16.57 0 0 1-3.84 10.6l-2.32 2.8A2.17 2.17 0 0 1-185 254z" stroke="#282c33" stroke-width="2" fill="#ccc"/><use xlink:href="#k" transform="matrix(1,0,0,1,-392,178) translate(0 17.77777777777778)"/><path d="M-400 220h-10m-40 0c0-11.05 8.95-20 20-20s20 8.95 20 20-8.95 20-20 20-20-8.95-20-20z" stroke="#282c33" stroke-width="2" fill="#fff"/><path d="M-400 220.8h-10v-1.6h10z" fill="none"/><path d="M-400 56a12.8 12.8 0 0 1 4.6-9.84l2.8-2.32A16.57 16.57 0 0 1-382 40h201a6 6 0 0 1 6 6v76a16.57 16.57 0 0 1-3.84 10.6l-2.32 2.8A12.8 12.8 0 0 1-191 140h-203a6 6 0 0 1-6-6z" stroke="#282c33" stroke-width="2" fill="#fff"/><path d="M-394 50a2.17 2.17 0 0 1-1.4-3.84l2.8-2.32A16.57 16.57 0 0 1-382 40h201a2.48 2.48 0 0 1 1.76 4.24l-1.52 1.52A14.48 14.48 0 0 1-191 50z" stroke="#282c33" stroke-width="2" fill="#e6e6e6"/><path d="M-185 56a14.48 14.48 0 0 1 4.24-10.24l1.52-1.52A2.48 2.48 0 0 1-175 46v76a16.57 16.57 0 0 1-3.84 10.6l-2.32 2.8A2.17 2.17 0 0 1-185 134z" stroke="#282c33" stroke-width="2" fill="#ccc"/><use xlink:href="#l" transform="matrix(1,0,0,1,-392,58) translate(0 17.77777777777778)"/><use xlink:href="#m" transform="matrix(1,0,0,1,-392,58) translate(64.1358024691358 17.77777777777778)"/><path d="M-400 100h-10m-40 0c0-11.05 8.95-20 20-20s20 8.95 20 20-8.95 20-20 20-20-8.95-20-20z" stroke="#282c33" stroke-width="2" fill="#fff"/><path d="M-400 100.8h-10v-1.6h10z" fill="none"/><path d="M-760-38v11.05m0 11.06V6.23m0 11.05v22.1m0 11.07v22.1m0 11.06v11.06l.07.94.22.9.35.88.5.8.6.72.72.6.8.5.88.36.9.22.95.08h10.54m10.54 0h21.07m10.54 0h21.06m10.54 0h21.08m10.54 0H-617m10.53 0h21.08m10.54 0h21.08m10.54 0h21.07m10.54 0h21.07m10.54 0h10.54" stroke="#3a414a" stroke-width="2" fill="none"/><path d="M-759.02-37.97H-761V-39h1.96z" stroke="#3a414a" stroke-width=".05" fill="#3a414a"/><path d="M-454.2 100.66l-14.28 4.63V96z" stroke="#3a414a" stroke-width="2" fill="#3a414a"/><path d="M-400 296a12.8 12.8 0 0 1 4.6-9.84l2.8-2.32A16.57 16.57 0 0 1-382 280h201a6 6 0 0 1 6 6v76a16.57 16.57 0 0 1-3.84 10.6l-2.32 2.8A12.8 12.8 0 0 1-191 380h-203a6 6 0 0 1-6-6z" stroke="#282c33" stroke-width="2" fill="#fff"/><path d="M-394 290a2.17 2.17 0 0 1-1.4-3.84l2.8-2.32A16.57 16.57 0 0 1-382 280h201a2.48 2.48 0 0 1 1.76 4.24l-1.52 1.52A14.48 14.48 0 0 1-191 290z" stroke="#282c33" stroke-width="2" fill="#e6e6e6"/><path d="M-185 296a14.48 14.48 0 0 1 4.24-10.24l1.52-1.52A2.48 2.48 0 0 1-175 286v76a16.57 16.57 0 0 1-3.84 10.6l-2.32 2.8A2.17 2.17 0 0 1-185 374z" stroke="#282c33" stroke-width="2" fill="#ccc"/><use xlink:href="#n" transform="matrix(1,0,0,1,-392,298) translate(0 17.77777777777778)"/><path d="M-400 340h-10m-40 0c0-11.05 8.95-20 20-20s20 8.95 20 20-8.95 20-20 20-20-8.95-20-20z" stroke="#282c33" stroke-width="2" fill="#fff"/><path d="M-400 340.8h-10v-1.6h10z" fill="none"/><path d="M-760-38v10.38m0 10.4V3.52m0 10.4v20.76m0 10.37v20.77m0 10.38V97m0 10.37v20.77m0 10.38v20.77m0 10.37v20.77m0 10.38v20.77m0 10.37v20.77m0 10.38v20.77m0 10.37v20.77m0 10.38v10.4l.07.93.22.9.35.88.5.8.6.72.72.6.8.5.88.36.9.23.95.08h10.54m10.54 0h21.08m10.54 0h21.1m10.53 0h21.08m10.55 0h21.08m10.54 0h21.08m10.55 0h21.08m10.54 0h21.08m10.54 0h21.08m10.54 0h10.54" stroke="#3a414a" stroke-width="2" fill="none"/><path d="M-759.02-37.97H-761V-39h1.96z" stroke="#3a414a" stroke-width=".05" fill="#3a414a"/><path d="M-454.13 341.8l-14.27 4.64v-9.27z" stroke="#3a414a" stroke-width="2" fill="#3a414a"/><path d="M-1280-164a6 6 0 0 1 6-6h148a6 6 0 0 1 6 6v108a6 6 0 0 1-6 6h-148a6 6 0 0 1-6-6z" stroke="#282c33" stroke-width="2" fill="#fff"/><path d="M-1130-160h-15v20h15z" stroke="#282c33" fill="#fff"/><path d="M-1140-156.67h-10v3.34h10zm0 10h-10v3.34h10z" stroke="#282c33" fill="#fff"/><use xlink:href="#o" transform="matrix(1,0,0,1,-1280,-170) translate(21.177839506172838 62.77777777777778)"/><use xlink:href="#p" transform="matrix(1,0,0,1,-1280,-170) translate(72.16549382716049 62.77777777777778)"/><use xlink:href="#q" transform="matrix(1,0,0,1,-1280,-170) translate(99.32598765432098 62.77777777777778)"/><path d="M-1118-110h9.9m9.9 0h19.8m9.9 0h19.8m9.9 0h19.8m9.9 0h19.8m9.9 0h9.9" stroke="#3a414a" stroke-width="2" fill="none"/><path d="M-1117.97-109.03h-1.03v-1.94h1.03z" stroke="#3a414a" stroke-width=".05" fill="#3a414a"/><path d="M-954.24-110l-14.26 4.64v-9.28z" stroke="#3a414a" stroke-width="2" fill="#3a414a"/><path d="M-400 416a12.8 12.8 0 0 1 4.6-9.84l2.8-2.32A16.57 16.57 0 0 1-382 400h201a6 6 0 0 1 6 6v76a16.57 16.57 0 0 1-3.84 10.6l-2.32 2.8A12.8 12.8 0 0 1-191 500h-203a6 6 0 0 1-6-6z" stroke="#282c33" stroke-width="2" fill="#fff"/><path d="M-394 410a2.17 2.17 0 0 1-1.4-3.84l2.8-2.32A16.57 16.57 0 0 1-382 400h201a2.48 2.48 0 0 1 1.76 4.24l-1.52 1.52A14.48 14.48 0 0 1-191 410z" stroke="#282c33" stroke-width="2" fill="#e6e6e6"/><path d="M-185 416a14.48 14.48 0 0 1 4.24-10.24l1.52-1.52A2.48 2.48 0 0 1-175 406v76a16.57 16.57 0 0 1-3.84 10.6l-2.32 2.8A2.17 2.17 0 0 1-185 494z" stroke="#282c33" stroke-width="2" fill="#ccc"/><g><use xlink:href="#r" transform="matrix(1,0,0,1,-392,418) translate(0 17.77777777777778)"/><use xlink:href="#s" transform="matrix(1,0,0,1,-392,418) translate(61.666666666666664 17.77777777777778)"/><use xlink:href="#t" transform="matrix(1,0,0,1,-392,418) translate(0 44.44444444444444)"/></g><g><path d="M-400 460h-10m-40 0c0-11.05 8.95-20 20-20s20 8.95 20 20-8.95 20-20 20-20-8.95-20-20z" stroke="#282c33" stroke-width="2" fill="#fff"/><path d="M-400 460.8h-10v-1.6h10z" fill="none"/></g><path d="M-760-38v10.26m0 10.26V3.04m0 10.25v20.5m0 10.27V64.6m0 10.25v20.5m0 10.27v20.52m0 10.26v20.52m0 10.26v20.5m0 10.27v20.52m0 10.26v20.52m0 10.25v20.52m0 10.26v20.52m0 10.26v20.5m0 10.27v20.52m0 10.26v20.53m0 10.26v20.5m0 10.26v10.26l.07.94.22.92.35.87.5.8.6.7.72.63.8.5.88.35.9.22.95.07h10.54m10.54 0h21.07m10.54 0h21.06m10.54 0h21.08m10.53 0h21.1m10.52 0h21.08m10.54 0h21.07m10.55 0h21.08m10.53 0h21.08m10.54 0h10.53" stroke="#3a414a" stroke-width="2" fill="none"/><path d="M-759.02-37.97H-761V-39h1.96z" stroke="#3a414a" stroke-width=".05" fill="#3a414a"/><path d="M-454.22 460.42l-14.27 4.64v-9.27z" stroke="#3a414a" stroke-width="2" fill="#3a414a"/><path d="M-520 129a6 6 0 0 1 6-6h98a6 6 0 0 1 6 6v62a6 6 0 0 1-6 6h-98a6 6 0 0 1-6-6z" stroke="#000" stroke-opacity="0" stroke-width="2" fill="#fff" fill-opacity="0"/><g><use xlink:href="#u" transform="matrix(1,0,0,1,-515,127.99999999999999) translate(12.987654320987666 26.222222222222218)"/><use xlink:href="#v" transform="matrix(1,0,0,1,-515,127.99999999999999) translate(10.51851851851854 47.55555555555554)"/></g><defs><path fill="#3a414a" d="M240 0l2-218c-23 76-54 145-80 218h-23L58-218 59 0H30v-248h44l77 211c21-75 51-140 76-211h43V0h-30" id="w"/><path fill="#3a414a" d="M100-194c62-1 85 37 85 99 1 63-27 99-86 99S16-35 15-95c0-66 28-99 85-99zM99-20c44 1 53-31 53-75 0-43-8-75-51-75s-53 32-53 75 10 74 51 75" id="x"/><path fill="#3a414a" d="M85-194c31 0 48 13 60 33l-1-100h32l1 261h-30c-2-10 0-23-3-31C134-8 116 4 85 4 32 4 16-35 15-94c0-66 23-100 70-100zm9 24c-40 0-46 34-46 75 0 40 6 74 45 74 42 0 51-32 51-76 0-42-9-74-50-73" id="y"/><path fill="#3a414a" d="M100-194c63 0 86 42 84 106H49c0 40 14 67 53 68 26 1 43-12 49-29l28 8c-11 28-37 45-77 45C44 4 14-33 15-96c1-61 26-98 85-98zm52 81c6-60-76-77-97-28-3 7-6 17-6 28h103" id="z"/><path fill="#3a414a" d="M24 0v-261h32V0H24" id="A"/><g id="a"><use transform="matrix(0.06172839506172839,0,0,0.06172839506172839,0,0)" xlink:href="#w"/><use transform="matrix(0.06172839506172839,0,0,0.06172839506172839,18.456790123456788,0)" xlink:href="#x"/><use transform="matrix(0.06172839506172839,0,0,0.06172839506172839,30.80246913580247,0)" xlink:href="#y"/><use transform="matrix(0.06172839506172839,0,0,0.06172839506172839,43.148148148148145,0)" xlink:href="#z"/><use transform="matrix(0.06172839506172839,0,0,0.06172839506172839,55.49382716049382,0)" xlink:href="#A"/></g><path fill="#3a414a" d="M143 4C61 4 22-44 18-125c-5-107 100-154 193-111 17 8 29 25 37 43l-32 9c-13-25-37-40-76-40-61 0-88 39-88 99 0 61 29 100 91 101 35 0 62-11 79-27v-45h-74v-28h105v86C228-13 192 4 143 4" id="B"/><path fill="#3a414a" d="M141-36C126-15 110 5 73 4 37 3 15-17 15-53c-1-64 63-63 125-63 3-35-9-54-41-54-24 1-41 7-42 31l-33-3c5-37 33-52 76-52 45 0 72 20 72 64v82c-1 20 7 32 28 27v20c-31 9-61-2-59-35zM48-53c0 20 12 33 32 33 41-3 63-29 60-74-43 2-92-5-92 41" id="C"/><path fill="#3a414a" d="M59-47c-2 24 18 29 38 22v24C64 9 27 4 27-40v-127H5v-23h24l9-43h21v43h35v23H59v120" id="D"/><path fill="#3a414a" d="M206 0h-36l-40-164L89 0H53L-1-190h32L70-26l43-164h34l41 164 42-164h31" id="E"/><path fill="#3a414a" d="M179-190L93 31C79 59 56 82 12 73V49c39 6 53-20 64-50L1-190h34L92-34l54-156h33" id="F"/><g id="b"><use transform="matrix(0.06172839506172839,0,0,0.06172839506172839,0,0)" xlink:href="#B"/><use transform="matrix(0.06172839506172839,0,0,0.06172839506172839,17.28395061728395,0)" xlink:href="#C"/><use transform="matrix(0.06172839506172839,0,0,0.06172839506172839,29.629629629629626,0)" xlink:href="#D"/><use transform="matrix(0.06172839506172839,0,0,0.06172839506172839,35.80246913580247,0)" xlink:href="#z"/><use transform="matrix(0.06172839506172839,0,0,0.06172839506172839,48.148148148148145,0)" xlink:href="#E"/><use transform="matrix(0.06172839506172839,0,0,0.06172839506172839,64.1358024691358,0)" xlink:href="#C"/><use transform="matrix(0.06172839506172839,0,0,0.06172839506172839,76.48148148148148,0)" xlink:href="#F"/></g><g id="c"><use transform="matrix(0.06172839506172839,0,0,0.06172839506172839,0,0)" xlink:href="#B"/><use transform="matrix(0.06172839506172839,0,0,0.06172839506172839,17.28395061728395,0)" xlink:href="#C"/><use transform="matrix(0.06172839506172839,0,0,0.06172839506172839,29.629629629629626,0)" xlink:href="#D"/><use transform="matrix(0.06172839506172839,0,0,0.06172839506172839,35.80246913580247,0)" xlink:href="#z"/><use transform="matrix(0.06172839506172839,0,0,0.06172839506172839,48.148148148148145,0)" xlink:href="#E"/><use transform="matrix(0.06172839506172839,0,0,0.06172839506172839,64.1358024691358,0)" xlink:href="#C"/><use transform="matrix(0.06172839506172839,0,0,0.06172839506172839,76.48148148148148,0)" xlink:href="#F"/></g><path fill="#3a414a" d="M205 0l-28-72H64L36 0H1l101-248h38L239 0h-34zm-38-99l-47-123c-12 45-31 82-46 123h93" id="G"/><path fill="#3a414a" d="M210-169c-67 3-38 105-44 169h-31v-121c0-29-5-50-35-48C34-165 62-65 56 0H25l-1-190h30c1 10-1 24 2 32 10-44 99-50 107 0 11-21 27-35 58-36 85-2 47 119 55 194h-31v-121c0-29-5-49-35-48" id="H"/><path fill="#3a414a" d="M24-231v-30h32v30H24zM24 0v-190h32V0H24" id="I"/><path fill="#3a414a" d="M117-194c89-4 53 116 60 194h-32v-121c0-31-8-49-39-48C34-167 62-67 57 0H25l-1-190h30c1 10-1 24 2 32 11-22 29-35 61-36" id="J"/><g id="d"><use transform="matrix(0.06172839506172839,0,0,0.06172839506172839,0,0)" xlink:href="#G"/><use transform="matrix(0.06172839506172839,0,0,0.06172839506172839,14.814814814814813,0)" xlink:href="#y"/><use transform="matrix(0.06172839506172839,0,0,0.06172839506172839,27.160493827160494,0)" xlink:href="#H"/><use transform="matrix(0.06172839506172839,0,0,0.06172839506172839,45.61728395061728,0)" xlink:href="#I"/><use transform="matrix(0.06172839506172839,0,0,0.06172839506172839,50.49382716049382,0)" xlink:href="#J"/></g><path fill="#3a414a" d="M212-179c-10-28-35-45-73-45-59 0-87 40-87 99 0 60 29 101 89 101 43 0 62-24 78-52l27 14C228-24 195 4 139 4 59 4 22-46 18-125c-6-104 99-153 187-111 19 9 31 26 39 46" id="K"/><path fill="#3a414a" d="M135-143c-3-34-86-38-87 0 15 53 115 12 119 90S17 21 10-45l28-5c4 36 97 45 98 0-10-56-113-15-118-90-4-57 82-63 122-42 12 7 21 19 24 35" id="L"/><g id="e"><use transform="matrix(0.06172839506172839,0,0,0.06172839506172839,0,0)" xlink:href="#K"/><use transform="matrix(0.06172839506172839,0,0,0.06172839506172839,15.987654320987653,0)" xlink:href="#x"/><use transform="matrix(0.06172839506172839,0,0,0.06172839506172839,28.333333333333332,0)" xlink:href="#J"/><use transform="matrix(0.06172839506172839,0,0,0.06172839506172839,40.67901234567901,0)" xlink:href="#L"/><use transform="matrix(0.06172839506172839,0,0,0.06172839506172839,51.79012345679013,0)" xlink:href="#x"/><use transform="matrix(0.06172839506172839,0,0,0.06172839506172839,64.13580246913581,0)" xlink:href="#A"/><use transform="matrix(0.06172839506172839,0,0,0.06172839506172839,69.01234567901236,0)" xlink:href="#z"/></g><path fill="#3a414a" d="M177-190C167-65 218 103 67 71c-23-6-38-20-44-43l32-5c15 47 100 32 89-28v-30C133-14 115 1 83 1 29 1 15-40 15-95c0-56 16-97 71-98 29-1 48 16 59 35 1-10 0-23 2-32h30zM94-22c36 0 50-32 50-73 0-42-14-75-50-75-39 0-46 34-46 75s6 73 46 73" id="M"/><g id="f"><use transform="matrix(0.0493827160493827,0,0,0.0493827160493827,0,0)" xlink:href="#w"/><use transform="matrix(0.0493827160493827,0,0,0.0493827160493827,14.765432098765427,0)" xlink:href="#C"/><use transform="matrix(0.0493827160493827,0,0,0.0493827160493827,24.641975308641968,0)" xlink:href="#J"/><use transform="matrix(0.0493827160493827,0,0,0.0493827160493827,34.518518518518505,0)" xlink:href="#C"/><use transform="matrix(0.0493827160493827,0,0,0.0493827160493827,44.39506172839504,0)" xlink:href="#M"/><use transform="matrix(0.0493827160493827,0,0,0.0493827160493827,54.27160493827157,0)" xlink:href="#z"/><use transform="matrix(0.0493827160493827,0,0,0.0493827160493827,64.14814814814812,0)" xlink:href="#H"/><use transform="matrix(0.0493827160493827,0,0,0.0493827160493827,78.91358024691355,0)" xlink:href="#z"/><use transform="matrix(0.0493827160493827,0,0,0.0493827160493827,88.7901234567901,0)" xlink:href="#J"/><use transform="matrix(0.0493827160493827,0,0,0.0493827160493827,98.66666666666664,0)" xlink:href="#D"/></g><path fill="#3a414a" d="M30 0v-248h187v28H63v79h144v27H63v87h162V0H30" id="N"/><path fill="#3a414a" d="M115-194c55 1 70 41 70 98S169 2 115 4C84 4 66-9 55-30l1 105H24l-1-265h31l2 30c10-21 28-34 59-34zm-8 174c40 0 45-34 45-75s-6-73-45-74c-42 0-51 32-51 76 0 43 10 73 51 73" id="O"/><g id="g"><use transform="matrix(0.0493827160493827,0,0,0.0493827160493827,0,0)" xlink:href="#N"/><use transform="matrix(0.0493827160493827,0,0,0.0493827160493827,11.851851851851848,0)" xlink:href="#J"/><use transform="matrix(0.0493827160493827,0,0,0.0493827160493827,21.728395061728385,0)" xlink:href="#y"/><use transform="matrix(0.0493827160493827,0,0,0.0493827160493827,31.604938271604922,0)" xlink:href="#O"/><use transform="matrix(0.0493827160493827,0,0,0.0493827160493827,41.48148148148146,0)" xlink:href="#x"/><use transform="matrix(0.0493827160493827,0,0,0.0493827160493827,51.358024691358,0)" xlink:href="#I"/><use transform="matrix(0.0493827160493827,0,0,0.0493827160493827,55.25925925925923,0)" xlink:href="#J"/><use transform="matrix(0.0493827160493827,0,0,0.0493827160493827,65.13580246913577,0)" xlink:href="#D"/></g><path fill="#3a414a" d="M18-100v-36l175-74v27L42-118l151 64v27" id="P"/><path fill="#3a414a" d="M114-163C36-179 61-72 57 0H25l-1-190h30c1 12-1 29 2 39 6-27 23-49 58-41v29" id="Q"/><path fill="#3a414a" d="M106-169C34-169 62-67 57 0H25v-261h32l-1 103c12-21 28-36 61-36 89 0 53 116 60 194h-32v-121c2-32-8-49-39-48" id="R"/><path fill="#3a414a" d="M140-251c81 0 123 46 123 126C263-53 228-8 163 1c7 30 30 48 69 40v23c-55 16-95-15-103-61C56-3 17-48 17-125c0-80 42-126 123-126zm0 227c63 0 89-41 89-101s-29-99-89-99c-61 0-89 39-89 99S79-25 140-24" id="S"/><path fill="#3a414a" d="M30 0v-248h33v221h125V0H30" id="T"/><path fill="#3a414a" d="M18-27v-27l151-64-151-65v-27l175 74v36" id="U"/><g id="h"><use transform="matrix(0.0493827160493827,0,0,0.0493827160493827,0,0)" xlink:href="#P"/><use transform="matrix(0.0493827160493827,0,0,0.0493827160493827,10.370370370370367,0)" xlink:href="#P"/><use transform="matrix(0.0493827160493827,0,0,0.0493827160493827,20.740740740740733,0)" xlink:href="#B"/><use transform="matrix(0.0493827160493827,0,0,0.0493827160493827,34.56790123456789,0)" xlink:href="#Q"/><use transform="matrix(0.0493827160493827,0,0,0.0493827160493827,40.44444444444443,0)" xlink:href="#C"/><use transform="matrix(0.0493827160493827,0,0,0.0493827160493827,50.320987654320966,0)" xlink:href="#O"/><use transform="matrix(0.0493827160493827,0,0,0.0493827160493827,60.197530864197496,0)" xlink:href="#R"/><use transform="matrix(0.0493827160493827,0,0,0.0493827160493827,70.07407407407405,0)" xlink:href="#S"/><use transform="matrix(0.0493827160493827,0,0,0.0493827160493827,83.9012345679012,0)" xlink:href="#T"/><use transform="matrix(0.0493827160493827,0,0,0.0493827160493827,93.77777777777774,0)" xlink:href="#U"/><use transform="matrix(0.0493827160493827,0,0,0.0493827160493827,104.14814814814811,0)" xlink:href="#U"/></g><g id="i"><use transform="matrix(0.0493827160493827,0,0,0.0493827160493827,0,0)" xlink:href="#B"/><use transform="matrix(0.0493827160493827,0,0,0.0493827160493827,13.827160493827156,0)" xlink:href="#C"/><use transform="matrix(0.0493827160493827,0,0,0.0493827160493827,23.703703703703695,0)" xlink:href="#D"/><use transform="matrix(0.0493827160493827,0,0,0.0493827160493827,28.641975308641964,0)" xlink:href="#z"/><use transform="matrix(0.0493827160493827,0,0,0.0493827160493827,38.518518518518505,0)" xlink:href="#E"/><use transform="matrix(0.0493827160493827,0,0,0.0493827160493827,51.308641975308625,0)" xlink:href="#C"/><use transform="matrix(0.0493827160493827,0,0,0.0493827160493827,61.18518518518516,0)" xlink:href="#F"/></g><g id="j"><use transform="matrix(0.0493827160493827,0,0,0.0493827160493827,0,0)" xlink:href="#N"/><use transform="matrix(0.0493827160493827,0,0,0.0493827160493827,11.851851851851848,0)" xlink:href="#J"/><use transform="matrix(0.0493827160493827,0,0,0.0493827160493827,21.728395061728385,0)" xlink:href="#y"/><use transform="matrix(0.0493827160493827,0,0,0.0493827160493827,31.604938271604922,0)" xlink:href="#O"/><use transform="matrix(0.0493827160493827,0,0,0.0493827160493827,41.48148148148146,0)" xlink:href="#x"/><use transform="matrix(0.0493827160493827,0,0,0.0493827160493827,51.358024691358,0)" xlink:href="#I"/><use transform="matrix(0.0493827160493827,0,0,0.0493827160493827,55.25925925925923,0)" xlink:href="#J"/><use transform="matrix(0.0493827160493827,0,0,0.0493827160493827,65.13580246913577,0)" xlink:href="#D"/></g><path fill="#3a414a" d="M140-251c81 0 123 46 123 126C263-46 219 4 140 4 59 4 17-45 17-125s42-126 123-126zm0 227c63 0 89-41 89-101s-29-99-89-99c-61 0-89 39-89 99S79-25 140-24" id="V"/><path fill="#3a414a" d="M33 0v-248h34V0H33" id="W"/><g id="k"><use transform="matrix(0.06172839506172839,0,0,0.06172839506172839,0,0)" xlink:href="#V"/><use transform="matrix(0.06172839506172839,0,0,0.06172839506172839,17.28395061728395,0)" xlink:href="#O"/><use transform="matrix(0.06172839506172839,0,0,0.06172839506172839,29.629629629629626,0)" xlink:href="#z"/><use transform="matrix(0.06172839506172839,0,0,0.06172839506172839,41.9753086419753,0)" xlink:href="#J"/><use transform="matrix(0.06172839506172839,0,0,0.06172839506172839,54.32098765432098,0)" xlink:href="#G"/><use transform="matrix(0.06172839506172839,0,0,0.06172839506172839,69.1358024691358,0)" xlink:href="#W"/></g><path fill="#3a414a" d="M9 0v-24l116-142H16v-24h144v24L44-24h123V0H9" id="X"/><path fill="#3a414a" d="M84 4C-5 8 30-112 23-190h32v120c0 31 7 50 39 49 72-2 45-101 50-169h31l1 190h-30c-1-10 1-25-2-33-11 22-28 36-60 37" id="Y"/><g id="l"><use transform="matrix(0.06172839506172839,0,0,0.06172839506172839,0,0)" xlink:href="#G"/><use transform="matrix(0.06172839506172839,0,0,0.06172839506172839,14.814814814814813,0)" xlink:href="#X"/><use transform="matrix(0.06172839506172839,0,0,0.06172839506172839,25.925925925925924,0)" xlink:href="#Y"/><use transform="matrix(0.06172839506172839,0,0,0.06172839506172839,38.2716049382716,0)" xlink:href="#Q"/><use transform="matrix(0.06172839506172839,0,0,0.06172839506172839,45.61728395061728,0)" xlink:href="#z"/></g><g id="m"><use transform="matrix(0.06172839506172839,0,0,0.06172839506172839,0,0)" xlink:href="#V"/><use transform="matrix(0.06172839506172839,0,0,0.06172839506172839,17.28395061728395,0)" xlink:href="#O"/><use transform="matrix(0.06172839506172839,0,0,0.06172839506172839,29.629629629629626,0)" xlink:href="#z"/><use transform="matrix(0.06172839506172839,0,0,0.06172839506172839,41.9753086419753,0)" xlink:href="#J"/><use transform="matrix(0.06172839506172839,0,0,0.06172839506172839,54.32098765432098,0)" xlink:href="#G"/><use transform="matrix(0.06172839506172839,0,0,0.06172839506172839,69.1358024691358,0)" xlink:href="#W"/></g><g id="n"><use transform="matrix(0.06172839506172839,0,0,0.06172839506172839,0,0)" xlink:href="#V"/><use transform="matrix(0.06172839506172839,0,0,0.06172839506172839,17.28395061728395,0)" xlink:href="#A"/><use transform="matrix(0.06172839506172839,0,0,0.06172839506172839,22.160493827160494,0)" xlink:href="#A"/><use transform="matrix(0.06172839506172839,0,0,0.06172839506172839,27.037037037037038,0)" xlink:href="#C"/><use transform="matrix(0.06172839506172839,0,0,0.06172839506172839,39.382716049382715,0)" xlink:href="#H"/><use transform="matrix(0.06172839506172839,0,0,0.06172839506172839,57.839506172839506,0)" xlink:href="#C"/></g><path fill="#3a414a" d="M137-103V0h-34v-103L8-248h37l75 118 75-118h37" id="Z"/><g id="o"><use transform="matrix(0.06172839506172839,0,0,0.06172839506172839,0,0)" xlink:href="#Z"/><use transform="matrix(0.06172839506172839,0,0,0.06172839506172839,12.777777777777777,0)" xlink:href="#x"/><use transform="matrix(0.06172839506172839,0,0,0.06172839506172839,25.123456790123456,0)" xlink:href="#Y"/><use transform="matrix(0.06172839506172839,0,0,0.06172839506172839,37.46913580246913,0)" xlink:href="#Q"/></g><g id="p"><use transform="matrix(0.06172839506172839,0,0,0.06172839506172839,0,0)" xlink:href="#G"/><use transform="matrix(0.06172839506172839,0,0,0.06172839506172839,14.814814814814813,0)" xlink:href="#W"/></g><g id="q"><use transform="matrix(0.06172839506172839,0,0,0.06172839506172839,0,0)" xlink:href="#G"/><use transform="matrix(0.06172839506172839,0,0,0.06172839506172839,14.814814814814813,0)" xlink:href="#O"/><use transform="matrix(0.06172839506172839,0,0,0.06172839506172839,27.160493827160494,0)" xlink:href="#O"/></g><g id="r"><use transform="matrix(0.06172839506172839,0,0,0.06172839506172839,0,0)" xlink:href="#V"/><use transform="matrix(0.06172839506172839,0,0,0.06172839506172839,17.28395061728395,0)" xlink:href="#D"/><use transform="matrix(0.06172839506172839,0,0,0.06172839506172839,23.456790123456788,0)" xlink:href="#R"/><use transform="matrix(0.06172839506172839,0,0,0.06172839506172839,35.80246913580247,0)" xlink:href="#z"/><use transform="matrix(0.06172839506172839,0,0,0.06172839506172839,48.148148148148145,0)" xlink:href="#Q"/></g><g id="s"><use transform="matrix(0.06172839506172839,0,0,0.06172839506172839,0,0)" xlink:href="#G"/><use transform="matrix(0.06172839506172839,0,0,0.06172839506172839,14.814814814814813,0)" xlink:href="#W"/></g><path fill="#3a414a" d="M30-248c87 1 191-15 191 75 0 78-77 80-158 76V0H30v-248zm33 125c57 0 124 11 124-50 0-59-68-47-124-48v98" id="aa"/><path fill="#3a414a" d="M108 0H70L1-190h34L89-25l56-165h34" id="ab"/><g id="t"><use transform="matrix(0.06172839506172839,0,0,0.06172839506172839,0,0)" xlink:href="#aa"/><use transform="matrix(0.06172839506172839,0,0,0.06172839506172839,14.814814814814813,0)" xlink:href="#Q"/><use transform="matrix(0.06172839506172839,0,0,0.06172839506172839,22.160493827160494,0)" xlink:href="#x"/><use transform="matrix(0.06172839506172839,0,0,0.06172839506172839,34.50617283950617,0)" xlink:href="#ab"/><use transform="matrix(0.06172839506172839,0,0,0.06172839506172839,45.61728395061728,0)" xlink:href="#I"/><use transform="matrix(0.06172839506172839,0,0,0.06172839506172839,50.49382716049382,0)" xlink:href="#y"/><use transform="matrix(0.06172839506172839,0,0,0.06172839506172839,62.8395061728395,0)" xlink:href="#z"/><use transform="matrix(0.06172839506172839,0,0,0.06172839506172839,75.18518518518518,0)" xlink:href="#Q"/></g><path fill="#3a414a" d="M101-234c-31-9-42 10-38 44h38v23H63V0H32v-167H5v-23h27c-7-52 17-82 69-68v24" id="ac"/><path fill="#3a414a" d="M96-169c-40 0-48 33-48 73s9 75 48 75c24 0 41-14 43-38l32 2c-6 37-31 61-74 61-59 0-76-41-82-99-10-93 101-131 147-64 4 7 5 14 7 22l-32 3c-4-21-16-35-41-35" id="ad"/><g id="u"><use transform="matrix(0.0493827160493827,0,0,0.0493827160493827,0,0)" xlink:href="#W"/><use transform="matrix(0.0493827160493827,0,0,0.0493827160493827,4.9382716049382696,0)" xlink:href="#J"/><use transform="matrix(0.0493827160493827,0,0,0.0493827160493827,14.81481481481481,0)" xlink:href="#ac"/><use transform="matrix(0.0493827160493827,0,0,0.0493827160493827,19.753086419753078,0)" xlink:href="#z"/><use transform="matrix(0.0493827160493827,0,0,0.0493827160493827,29.62962962962962,0)" xlink:href="#Q"/><use transform="matrix(0.0493827160493827,0,0,0.0493827160493827,35.50617283950616,0)" xlink:href="#z"/><use transform="matrix(0.0493827160493827,0,0,0.0493827160493827,45.3827160493827,0)" xlink:href="#J"/><use transform="matrix(0.0493827160493827,0,0,0.0493827160493827,55.25925925925924,0)" xlink:href="#ad"/><use transform="matrix(0.0493827160493827,0,0,0.0493827160493827,64.14814814814812,0)" xlink:href="#z"/></g><g id="v"><use transform="matrix(0.0493827160493827,0,0,0.0493827160493827,0,0)" xlink:href="#N"/><use transform="matrix(0.0493827160493827,0,0,0.0493827160493827,11.851851851851848,0)" xlink:href="#J"/><use transform="matrix(0.0493827160493827,0,0,0.0493827160493827,21.728395061728385,0)" xlink:href="#y"/><use transform="matrix(0.0493827160493827,0,0,0.0493827160493827,31.604938271604922,0)" xlink:href="#O"/><use transform="matrix(0.0493827160493827,0,0,0.0493827160493827,41.48148148148146,0)" xlink:href="#x"/><use transform="matrix(0.0493827160493827,0,0,0.0493827160493827,51.358024691358,0)" xlink:href="#I"/><use transform="matrix(0.0493827160493827,0,0,0.0493827160493827,55.25925925925923,0)" xlink:href="#J"/><use transform="matrix(0.0493827160493827,0,0,0.0493827160493827,65.13580246913577,0)" xlink:href="#D"/><use transform="matrix(0.0493827160493827,0,0,0.0493827160493827,70.07407407407403,0)" xlink:href="#L"/></g></defs></g></svg>