<svg xmlns="http://www.w3.org/2000/svg" xmlns:xlink="http://www.w3.org/1999/xlink" xmlns:lucid="lucid" width="1062" height="304"><g transform="translate(541 -321.2932174089228)" lucid:page-tab-id="0_0"><path d="M-160 403a6 6 0 0 1 6-6H34a6 6 0 0 1 6 6v139a6 6 0 0 1-6 6h-188a6 6 0 0 1-6-6z" fill="#fff"/><path d="M-160 403a6 6 0 0 1 6-6H34a6 6 0 0 1 6 6v139a6 6 0 0 1-6 6h-188a6 6 0 0 1-6-6zM-160 437H40" stroke="#282c33" stroke-width="2" fill="none"/><use xlink:href="#a" transform="matrix(1,0,0,1,-150,396.99999999999994) translate(46.2037037037037 24.444444444444443)"/><use xlink:href="#b" transform="matrix(1,0,0,1,-155,439.49999999999994) translate(0 20.444444444444443)"/><use xlink:href="#c" transform="matrix(1,0,0,1,-155,476.49999999999994) translate(0 20.444444444444443)"/><use xlink:href="#d" transform="matrix(1,0,0,1,-155,513.5) translate(0 20.444444444444443)"/><path d="M240 348.3a6 6 0 0 1 6-6h248a6 6 0 0 1 6 6v250a6 6 0 0 1-6 6H246a6 6 0 0 1-6-6z" fill="#fff"/><path d="M240 348.3a6 6 0 0 1 6-6h248a6 6 0 0 1 6 6v250a6 6 0 0 1-6 6H246a6 6 0 0 1-6-6zM240 382.3h260" stroke="#282c33" stroke-width="2" fill="none"/><use xlink:href="#e" transform="matrix(1,0,0,1,250,342.2932174089228) translate(26.851851851851848 24.444444444444443)"/><use xlink:href="#f" transform="matrix(1,0,0,1,250,342.2932174089228) translate(125.55555555555556 24.444444444444443)"/><use xlink:href="#b" transform="matrix(1,0,0,1,245,384.7932174089228) translate(0 20.444444444444443)"/><use xlink:href="#c" transform="matrix(1,0,0,1,245,421.7932174089228) translate(0 20.444444444444443)"/><use xlink:href="#g" transform="matrix(1,0,0,1,245,458.7932174089228) translate(0 20.444444444444443)"/><use xlink:href="#h" transform="matrix(1,0,0,1,245,495.7932174089228) translate(0 20.444444444444443)"/><use xlink:href="#i" transform="matrix(1,0,0,1,245,532.7932174089228) translate(0 20.444444444444443)"/><use xlink:href="#d" transform="matrix(1,0,0,1,245,569.7932174089228) translate(0 20.444444444444443)"/><path d="M80 474.8h120" stroke="#3a414a" stroke-width="2" fill="none"/><path d="M41.45 464.8l20 10-20 10" stroke="#3a414a" stroke-width="2" fill="#fff" fill-opacity="0"/><path d="M41.45 474.8h20M81.45 474.8c0 5.53-4.48 10-10 10-5.53 0-10-4.47-10-10 0-5.52 4.47-10 10-10 5.52 0 10 4.48 10 10" stroke="#3a414a" stroke-width="2" fill="#fff"/><path d="M238.55 484.8l-20-10 20-10" stroke="#3a414a" stroke-width="2" fill="#fff" fill-opacity="0"/><path d="M238.55 474.8h-20M218.55 474.8c0 5.53-4.47 10-10 10-5.52 0-10-4.47-10-10 0-5.52 4.48-10 10-10 5.53 0 10 4.48 10 10" stroke="#3a414a" stroke-width="2" fill="#fff"/><path d="M-520 384.5a6 6 0 0 1 6-6h188a6 6 0 0 1 6 6v176a6 6 0 0 1-6 6h-188a6 6 0 0 1-6-6z" fill="#fff"/><path d="M-520 384.5a6 6 0 0 1 6-6h188a6 6 0 0 1 6 6v176a6 6 0 0 1-6 6h-188a6 6 0 0 1-6-6zM-520 418.5h200" stroke="#282c33" stroke-width="2" fill="none"/><use xlink:href="#j" transform="matrix(1,0,0,1,-510,378.5) translate(23.98148148148148 24.444444444444443)"/><use xlink:href="#k" transform="matrix(1,0,0,1,-510,378.5) translate(117.74691358024691 24.444444444444443)"/><use xlink:href="#b" transform="matrix(1,0,0,1,-515,421) translate(0 20.444444444444443)"/><use xlink:href="#c" transform="matrix(1,0,0,1,-515,458) translate(0 20.444444444444443)"/><use xlink:href="#l" transform="matrix(1,0,0,1,-515,495) translate(0 20.444444444444443)"/><use xlink:href="#d" transform="matrix(1,0,0,1,-515,532) translate(0 20.444444444444443)"/><path d="M-181 474h-99" stroke="#3a414a" stroke-width="2" fill="none"/><path d="M-181 464v20M-161 474h-20" stroke="#3a414a" stroke-width="2" fill="#fff"/><path d="M-318.55 464l20 10-20 10" stroke="#3a414a" stroke-width="2" fill="#fff" fill-opacity="0"/><path d="M-318.55 474h20M-278.55 474c0 5.52-4.48 10-10 10-5.53 0-10-4.48-10-10s4.47-10 10-10c5.52 0 10 4.48 10 10" stroke="#3a414a" stroke-width="2" fill="#fff"/><defs><path fill="#3a414a" d="M143 4C61 4 22-44 18-125c-5-107 100-154 193-111 17 8 29 25 37 43l-32 9c-13-25-37-40-76-40-61 0-88 39-88 99 0 61 29 100 91 101 35 0 62-11 79-27v-45h-74v-28h105v86C228-13 192 4 143 4" id="m"/><path fill="#3a414a" d="M141-36C126-15 110 5 73 4 37 3 15-17 15-53c-1-64 63-63 125-63 3-35-9-54-41-54-24 1-41 7-42 31l-33-3c5-37 33-52 76-52 45 0 72 20 72 64v82c-1 20 7 32 28 27v20c-31 9-61-2-59-35zM48-53c0 20 12 33 32 33 41-3 63-29 60-74-43 2-92-5-92 41" id="n"/><path fill="#3a414a" d="M59-47c-2 24 18 29 38 22v24C64 9 27 4 27-40v-127H5v-23h24l9-43h21v43h35v23H59v120" id="o"/><path fill="#3a414a" d="M100-194c63 0 86 42 84 106H49c0 40 14 67 53 68 26 1 43-12 49-29l28 8c-11 28-37 45-77 45C44 4 14-33 15-96c1-61 26-98 85-98zm52 81c6-60-76-77-97-28-3 7-6 17-6 28h103" id="p"/><path fill="#3a414a" d="M206 0h-36l-40-164L89 0H53L-1-190h32L70-26l43-164h34l41 164 42-164h31" id="q"/><path fill="#3a414a" d="M179-190L93 31C79 59 56 82 12 73V49c39 6 53-20 64-50L1-190h34L92-34l54-156h33" id="r"/><g id="a"><use transform="matrix(0.06172839506172839,0,0,0.06172839506172839,0,0)" xlink:href="#m"/><use transform="matrix(0.06172839506172839,0,0,0.06172839506172839,17.28395061728395,0)" xlink:href="#n"/><use transform="matrix(0.06172839506172839,0,0,0.06172839506172839,29.629629629629626,0)" xlink:href="#o"/><use transform="matrix(0.06172839506172839,0,0,0.06172839506172839,35.80246913580247,0)" xlink:href="#p"/><use transform="matrix(0.06172839506172839,0,0,0.06172839506172839,48.148148148148145,0)" xlink:href="#q"/><use transform="matrix(0.06172839506172839,0,0,0.06172839506172839,64.1358024691358,0)" xlink:href="#n"/><use transform="matrix(0.06172839506172839,0,0,0.06172839506172839,76.48148148148148,0)" xlink:href="#r"/></g><path fill="#3a414a" d="M24-231v-30h32v30H24zM24 0v-190h32V0H24" id="s"/><path fill="#3a414a" d="M85-194c31 0 48 13 60 33l-1-100h32l1 261h-30c-2-10 0-23-3-31C134-8 116 4 85 4 32 4 16-35 15-94c0-66 23-100 70-100zm9 24c-40 0-46 34-46 75 0 40 6 74 45 74 42 0 51-32 51-76 0-42-9-74-50-73" id="t"/><g id="b"><use transform="matrix(0.06172839506172839,0,0,0.06172839506172839,0,0)" xlink:href="#s"/><use transform="matrix(0.06172839506172839,0,0,0.06172839506172839,4.876543209876543,0)" xlink:href="#t"/></g><path fill="#3a414a" d="M117-194c89-4 53 116 60 194h-32v-121c0-31-8-49-39-48C34-167 62-67 57 0H25l-1-190h30c1 10-1 24 2 32 11-22 29-35 61-36" id="u"/><path fill="#3a414a" d="M210-169c-67 3-38 105-44 169h-31v-121c0-29-5-50-35-48C34-165 62-65 56 0H25l-1-190h30c1 10-1 24 2 32 10-44 99-50 107 0 11-21 27-35 58-36 85-2 47 119 55 194h-31v-121c0-29-5-49-35-48" id="v"/><g id="c"><use transform="matrix(0.06172839506172839,0,0,0.06172839506172839,0,0)" xlink:href="#u"/><use transform="matrix(0.06172839506172839,0,0,0.06172839506172839,12.345679012345679,0)" xlink:href="#n"/><use transform="matrix(0.06172839506172839,0,0,0.06172839506172839,24.691358024691358,0)" xlink:href="#v"/><use transform="matrix(0.06172839506172839,0,0,0.06172839506172839,43.148148148148145,0)" xlink:href="#p"/></g><path fill="#3a414a" d="M33 0v-38h34V0H33" id="w"/><g id="d"><use transform="matrix(0.06172839506172839,0,0,0.06172839506172839,0,0)" xlink:href="#w"/><use transform="matrix(0.06172839506172839,0,0,0.06172839506172839,6.172839506172839,0)" xlink:href="#w"/><use transform="matrix(0.06172839506172839,0,0,0.06172839506172839,12.345679012345679,0)" xlink:href="#w"/></g><path fill="#3a414a" d="M33 0v-248h34V0H33" id="x"/><path fill="#3a414a" d="M101-234c-31-9-42 10-38 44h38v23H63V0H32v-167H5v-23h27c-7-52 17-82 69-68v24" id="y"/><path fill="#3a414a" d="M114-163C36-179 61-72 57 0H25l-1-190h30c1 12-1 29 2 39 6-27 23-49 58-41v29" id="z"/><path fill="#3a414a" d="M96-169c-40 0-48 33-48 73s9 75 48 75c24 0 41-14 43-38l32 2c-6 37-31 61-74 61-59 0-76-41-82-99-10-93 101-131 147-64 4 7 5 14 7 22l-32 3c-4-21-16-35-41-35" id="A"/><g id="e"><use transform="matrix(0.06172839506172839,0,0,0.06172839506172839,0,0)" xlink:href="#x"/><use transform="matrix(0.06172839506172839,0,0,0.06172839506172839,6.172839506172839,0)" xlink:href="#u"/><use transform="matrix(0.06172839506172839,0,0,0.06172839506172839,18.51851851851852,0)" xlink:href="#y"/><use transform="matrix(0.06172839506172839,0,0,0.06172839506172839,24.691358024691358,0)" xlink:href="#p"/><use transform="matrix(0.06172839506172839,0,0,0.06172839506172839,37.03703703703704,0)" xlink:href="#z"/><use transform="matrix(0.06172839506172839,0,0,0.06172839506172839,44.382716049382715,0)" xlink:href="#p"/><use transform="matrix(0.06172839506172839,0,0,0.06172839506172839,56.72839506172839,0)" xlink:href="#u"/><use transform="matrix(0.06172839506172839,0,0,0.06172839506172839,69.07407407407408,0)" xlink:href="#A"/><use transform="matrix(0.06172839506172839,0,0,0.06172839506172839,80.18518518518519,0)" xlink:href="#p"/></g><path fill="#3a414a" d="M30 0v-248h187v28H63v79h144v27H63v87h162V0H30" id="B"/><path fill="#3a414a" d="M115-194c55 1 70 41 70 98S169 2 115 4C84 4 66-9 55-30l1 105H24l-1-265h31l2 30c10-21 28-34 59-34zm-8 174c40 0 45-34 45-75s-6-73-45-74c-42 0-51 32-51 76 0 43 10 73 51 73" id="C"/><path fill="#3a414a" d="M100-194c62-1 85 37 85 99 1 63-27 99-86 99S16-35 15-95c0-66 28-99 85-99zM99-20c44 1 53-31 53-75 0-43-8-75-51-75s-53 32-53 75 10 74 51 75" id="D"/><g id="f"><use transform="matrix(0.06172839506172839,0,0,0.06172839506172839,0,0)" xlink:href="#B"/><use transform="matrix(0.06172839506172839,0,0,0.06172839506172839,14.814814814814813,0)" xlink:href="#u"/><use transform="matrix(0.06172839506172839,0,0,0.06172839506172839,27.160493827160494,0)" xlink:href="#t"/><use transform="matrix(0.06172839506172839,0,0,0.06172839506172839,39.50617283950617,0)" xlink:href="#C"/><use transform="matrix(0.06172839506172839,0,0,0.06172839506172839,51.85185185185185,0)" xlink:href="#D"/><use transform="matrix(0.06172839506172839,0,0,0.06172839506172839,64.19753086419753,0)" xlink:href="#s"/><use transform="matrix(0.06172839506172839,0,0,0.06172839506172839,69.07407407407408,0)" xlink:href="#u"/><use transform="matrix(0.06172839506172839,0,0,0.06172839506172839,81.41975308641976,0)" xlink:href="#o"/></g><path fill="#3a414a" d="M24 0v-261h32V0H24" id="E"/><g id="g"><use transform="matrix(0.06172839506172839,0,0,0.06172839506172839,0,0)" xlink:href="#C"/><use transform="matrix(0.06172839506172839,0,0,0.06172839506172839,12.345679012345679,0)" xlink:href="#E"/><use transform="matrix(0.06172839506172839,0,0,0.06172839506172839,17.22222222222222,0)" xlink:href="#n"/><use transform="matrix(0.06172839506172839,0,0,0.06172839506172839,29.5679012345679,0)" xlink:href="#o"/><use transform="matrix(0.06172839506172839,0,0,0.06172839506172839,35.74074074074074,0)" xlink:href="#y"/><use transform="matrix(0.06172839506172839,0,0,0.06172839506172839,41.91358024691358,0)" xlink:href="#D"/><use transform="matrix(0.06172839506172839,0,0,0.06172839506172839,54.25925925925926,0)" xlink:href="#z"/><use transform="matrix(0.06172839506172839,0,0,0.06172839506172839,61.60493827160494,0)" xlink:href="#v"/></g><g id="h"><use transform="matrix(0.06172839506172839,0,0,0.06172839506172839,0,0)" xlink:href="#p"/><use transform="matrix(0.06172839506172839,0,0,0.06172839506172839,12.345679012345679,0)" xlink:href="#u"/><use transform="matrix(0.06172839506172839,0,0,0.06172839506172839,24.691358024691358,0)" xlink:href="#t"/><use transform="matrix(0.06172839506172839,0,0,0.06172839506172839,37.03703703703704,0)" xlink:href="#C"/><use transform="matrix(0.06172839506172839,0,0,0.06172839506172839,49.382716049382715,0)" xlink:href="#D"/><use transform="matrix(0.06172839506172839,0,0,0.06172839506172839,61.72839506172839,0)" xlink:href="#s"/><use transform="matrix(0.06172839506172839,0,0,0.06172839506172839,66.60493827160494,0)" xlink:href="#u"/><use transform="matrix(0.06172839506172839,0,0,0.06172839506172839,78.95061728395062,0)" xlink:href="#o"/></g><path fill="#3a414a" d="M143 0L79-87 56-68V0H24v-261h32v163l83-92h37l-77 82L181 0h-38" id="F"/><g id="i"><use transform="matrix(0.06172839506172839,0,0,0.06172839506172839,0,0)" xlink:href="#F"/><use transform="matrix(0.06172839506172839,0,0,0.06172839506172839,11.11111111111111,0)" xlink:href="#p"/><use transform="matrix(0.06172839506172839,0,0,0.06172839506172839,23.45679012345679,0)" xlink:href="#r"/></g><g id="j"><use transform="matrix(0.06172839506172839,0,0,0.06172839506172839,0,0)" xlink:href="#m"/><use transform="matrix(0.06172839506172839,0,0,0.06172839506172839,17.28395061728395,0)" xlink:href="#n"/><use transform="matrix(0.06172839506172839,0,0,0.06172839506172839,29.629629629629626,0)" xlink:href="#o"/><use transform="matrix(0.06172839506172839,0,0,0.06172839506172839,35.80246913580247,0)" xlink:href="#p"/><use transform="matrix(0.06172839506172839,0,0,0.06172839506172839,48.148148148148145,0)" xlink:href="#q"/><use transform="matrix(0.06172839506172839,0,0,0.06172839506172839,64.1358024691358,0)" xlink:href="#n"/><use transform="matrix(0.06172839506172839,0,0,0.06172839506172839,76.48148148148148,0)" xlink:href="#r"/></g><path fill="#3a414a" d="M194 0L95-120 63-95V0H30v-248h33v124l119-124h40L117-140 236 0h-42" id="G"/><g id="k"><use transform="matrix(0.06172839506172839,0,0,0.06172839506172839,0,0)" xlink:href="#G"/><use transform="matrix(0.06172839506172839,0,0,0.06172839506172839,14.814814814814813,0)" xlink:href="#p"/><use transform="matrix(0.06172839506172839,0,0,0.06172839506172839,27.160493827160494,0)" xlink:href="#r"/></g><path fill="#3a414a" d="M197 0v-115H63V0H30v-248h33v105h134v-105h34V0h-34" id="H"/><path fill="#3a414a" d="M135-143c-3-34-86-38-87 0 15 53 115 12 119 90S17 21 10-45l28-5c4 36 97 45 98 0-10-56-113-15-118-90-4-57 82-63 122-42 12 7 21 19 24 35" id="I"/><path fill="#3a414a" d="M106-169C34-169 62-67 57 0H25v-261h32l-1 103c12-21 28-36 61-36 89 0 53 116 60 194h-32v-121c2-32-8-49-39-48" id="J"/><g id="l"><use transform="matrix(0.06172839506172839,0,0,0.06172839506172839,0,0)" xlink:href="#F"/><use transform="matrix(0.06172839506172839,0,0,0.06172839506172839,11.11111111111111,0)" xlink:href="#p"/><use transform="matrix(0.06172839506172839,0,0,0.06172839506172839,23.45679012345679,0)" xlink:href="#r"/><use transform="matrix(0.06172839506172839,0,0,0.06172839506172839,34.5679012345679,0)" xlink:href="#H"/><use transform="matrix(0.06172839506172839,0,0,0.06172839506172839,50.55555555555555,0)" xlink:href="#n"/><use transform="matrix(0.06172839506172839,0,0,0.06172839506172839,62.90123456790123,0)" xlink:href="#I"/><use transform="matrix(0.06172839506172839,0,0,0.06172839506172839,74.01234567901234,0)" xlink:href="#J"/></g></defs></g></svg>